<mxfile host="app.diagrams.net" agent="Mozilla/5.0 (Macintosh; Intel Mac OS X 10_15_7) AppleWebKit/537.36 (KHTML, like Gecko) Chrome/129.0.0.0 Safari/537.36" version="24.7.17">
  <diagram name="第 1 页" id="-iBdAIBDAezDfovrRm0V">
    <mxGraphModel dx="1139" dy="620" grid="1" gridSize="10" guides="1" tooltips="1" connect="1" arrows="1" fold="1" page="1" pageScale="1" pageWidth="827" pageHeight="1169" math="0" shadow="0">
      <root>
        <mxCell id="0" />
        <mxCell id="1" parent="0" />
        <mxCell id="1goMoPxQiR9Q-kaNRsh4-3" value="" style="edgeStyle=orthogonalEdgeStyle;rounded=0;orthogonalLoop=1;jettySize=auto;html=1;" edge="1" parent="1" source="1goMoPxQiR9Q-kaNRsh4-1" target="1goMoPxQiR9Q-kaNRsh4-2">
          <mxGeometry relative="1" as="geometry" />
        </mxCell>
        <mxCell id="1goMoPxQiR9Q-kaNRsh4-1" value="竞价成功" style="rounded=1;whiteSpace=wrap;html=1;fillColor=#008a00;fontColor=#ffffff;strokeColor=#005700;" vertex="1" parent="1">
          <mxGeometry x="100" y="360" width="120" height="60" as="geometry" />
        </mxCell>
        <mxCell id="1goMoPxQiR9Q-kaNRsh4-5" value="" style="edgeStyle=orthogonalEdgeStyle;rounded=0;orthogonalLoop=1;jettySize=auto;html=1;" edge="1" parent="1" source="1goMoPxQiR9Q-kaNRsh4-2" target="1goMoPxQiR9Q-kaNRsh4-4">
          <mxGeometry relative="1" as="geometry" />
        </mxCell>
        <mxCell id="1goMoPxQiR9Q-kaNRsh4-6" value="是" style="edgeLabel;html=1;align=center;verticalAlign=middle;resizable=0;points=[];" vertex="1" connectable="0" parent="1goMoPxQiR9Q-kaNRsh4-5">
          <mxGeometry x="0.1143" y="1" relative="1" as="geometry">
            <mxPoint as="offset" />
          </mxGeometry>
        </mxCell>
        <mxCell id="1goMoPxQiR9Q-kaNRsh4-8" value="" style="edgeStyle=orthogonalEdgeStyle;rounded=0;orthogonalLoop=1;jettySize=auto;html=1;" edge="1" parent="1" source="1goMoPxQiR9Q-kaNRsh4-2" target="1goMoPxQiR9Q-kaNRsh4-7">
          <mxGeometry relative="1" as="geometry" />
        </mxCell>
        <mxCell id="1goMoPxQiR9Q-kaNRsh4-9" value="否" style="edgeLabel;html=1;align=center;verticalAlign=middle;resizable=0;points=[];" vertex="1" connectable="0" parent="1goMoPxQiR9Q-kaNRsh4-8">
          <mxGeometry x="-0.025" y="-1" relative="1" as="geometry">
            <mxPoint as="offset" />
          </mxGeometry>
        </mxCell>
        <mxCell id="1goMoPxQiR9Q-kaNRsh4-2" value="是否免审" style="rhombus;whiteSpace=wrap;html=1;fillColor=#e51400;fontColor=#ffffff;strokeColor=#B20000;" vertex="1" parent="1">
          <mxGeometry x="300" y="350" width="80" height="80" as="geometry" />
        </mxCell>
        <mxCell id="1goMoPxQiR9Q-kaNRsh4-4" value="渲染广告" style="rounded=1;whiteSpace=wrap;html=1;fillColor=#647687;fontColor=#ffffff;strokeColor=#314354;" vertex="1" parent="1">
          <mxGeometry x="280" y="500" width="120" height="60" as="geometry" />
        </mxCell>
        <mxCell id="1goMoPxQiR9Q-kaNRsh4-11" value="" style="edgeStyle=orthogonalEdgeStyle;rounded=0;orthogonalLoop=1;jettySize=auto;html=1;" edge="1" parent="1" source="1goMoPxQiR9Q-kaNRsh4-7" target="1goMoPxQiR9Q-kaNRsh4-10">
          <mxGeometry relative="1" as="geometry" />
        </mxCell>
        <mxCell id="1goMoPxQiR9Q-kaNRsh4-7" value="组装数据发起送审请求" style="rounded=0;whiteSpace=wrap;html=1;fillColor=#647687;fontColor=#ffffff;strokeColor=#314354;" vertex="1" parent="1">
          <mxGeometry x="460" y="360" width="120" height="60" as="geometry" />
        </mxCell>
        <mxCell id="1goMoPxQiR9Q-kaNRsh4-13" value="" style="edgeStyle=orthogonalEdgeStyle;rounded=0;orthogonalLoop=1;jettySize=auto;html=1;" edge="1" parent="1" source="1goMoPxQiR9Q-kaNRsh4-10" target="1goMoPxQiR9Q-kaNRsh4-12">
          <mxGeometry relative="1" as="geometry" />
        </mxCell>
        <mxCell id="1goMoPxQiR9Q-kaNRsh4-14" value="否" style="edgeLabel;html=1;align=center;verticalAlign=middle;resizable=0;points=[];" vertex="1" connectable="0" parent="1goMoPxQiR9Q-kaNRsh4-13">
          <mxGeometry x="0.0333" y="4" relative="1" as="geometry">
            <mxPoint as="offset" />
          </mxGeometry>
        </mxCell>
        <mxCell id="1goMoPxQiR9Q-kaNRsh4-16" value="" style="edgeStyle=orthogonalEdgeStyle;rounded=0;orthogonalLoop=1;jettySize=auto;html=1;" edge="1" parent="1" source="1goMoPxQiR9Q-kaNRsh4-10" target="1goMoPxQiR9Q-kaNRsh4-15">
          <mxGeometry relative="1" as="geometry" />
        </mxCell>
        <mxCell id="1goMoPxQiR9Q-kaNRsh4-17" value="是" style="edgeLabel;html=1;align=center;verticalAlign=middle;resizable=0;points=[];" vertex="1" connectable="0" parent="1goMoPxQiR9Q-kaNRsh4-16">
          <mxGeometry x="-0.075" y="-1" relative="1" as="geometry">
            <mxPoint as="offset" />
          </mxGeometry>
        </mxCell>
        <mxCell id="1goMoPxQiR9Q-kaNRsh4-10" value="是否请求成功" style="rhombus;whiteSpace=wrap;html=1;fillColor=#e51400;fontColor=#ffffff;strokeColor=#B20000;" vertex="1" parent="1">
          <mxGeometry x="660" y="350" width="80" height="80" as="geometry" />
        </mxCell>
        <mxCell id="1goMoPxQiR9Q-kaNRsh4-25" value="" style="edgeStyle=orthogonalEdgeStyle;rounded=0;orthogonalLoop=1;jettySize=auto;html=1;" edge="1" parent="1" source="1goMoPxQiR9Q-kaNRsh4-12" target="1goMoPxQiR9Q-kaNRsh4-24">
          <mxGeometry relative="1" as="geometry">
            <Array as="points">
              <mxPoint x="890" y="660" />
            </Array>
          </mxGeometry>
        </mxCell>
        <mxCell id="1goMoPxQiR9Q-kaNRsh4-12" value="遍历所有可用的广告，取集合里第一个免审的广告" style="rounded=0;whiteSpace=wrap;html=1;fillColor=#647687;fontColor=#ffffff;strokeColor=#314354;" vertex="1" parent="1">
          <mxGeometry x="827" y="500" width="120" height="60" as="geometry" />
        </mxCell>
        <mxCell id="1goMoPxQiR9Q-kaNRsh4-20" style="edgeStyle=orthogonalEdgeStyle;rounded=0;orthogonalLoop=1;jettySize=auto;html=1;" edge="1" parent="1" source="1goMoPxQiR9Q-kaNRsh4-15" target="1goMoPxQiR9Q-kaNRsh4-4">
          <mxGeometry relative="1" as="geometry" />
        </mxCell>
        <mxCell id="1goMoPxQiR9Q-kaNRsh4-21" value="是" style="edgeLabel;html=1;align=center;verticalAlign=middle;resizable=0;points=[];" vertex="1" connectable="0" parent="1goMoPxQiR9Q-kaNRsh4-20">
          <mxGeometry x="-0.0462" y="-4" relative="1" as="geometry">
            <mxPoint as="offset" />
          </mxGeometry>
        </mxCell>
        <mxCell id="1goMoPxQiR9Q-kaNRsh4-22" style="edgeStyle=orthogonalEdgeStyle;rounded=0;orthogonalLoop=1;jettySize=auto;html=1;" edge="1" parent="1" source="1goMoPxQiR9Q-kaNRsh4-15" target="1goMoPxQiR9Q-kaNRsh4-12">
          <mxGeometry relative="1" as="geometry" />
        </mxCell>
        <mxCell id="1goMoPxQiR9Q-kaNRsh4-23" value="否" style="edgeLabel;html=1;align=center;verticalAlign=middle;resizable=0;points=[];" vertex="1" connectable="0" parent="1goMoPxQiR9Q-kaNRsh4-22">
          <mxGeometry x="-0.0575" y="-1" relative="1" as="geometry">
            <mxPoint as="offset" />
          </mxGeometry>
        </mxCell>
        <mxCell id="1goMoPxQiR9Q-kaNRsh4-15" value="是否审核通过" style="rhombus;whiteSpace=wrap;html=1;fillColor=#e51400;fontColor=#ffffff;strokeColor=#B20000;" vertex="1" parent="1">
          <mxGeometry x="660" y="490" width="80" height="80" as="geometry" />
        </mxCell>
        <mxCell id="1goMoPxQiR9Q-kaNRsh4-26" style="edgeStyle=orthogonalEdgeStyle;rounded=0;orthogonalLoop=1;jettySize=auto;html=1;entryX=0.5;entryY=1;entryDx=0;entryDy=0;" edge="1" parent="1" source="1goMoPxQiR9Q-kaNRsh4-24" target="1goMoPxQiR9Q-kaNRsh4-4">
          <mxGeometry relative="1" as="geometry" />
        </mxCell>
        <mxCell id="1goMoPxQiR9Q-kaNRsh4-27" value="是" style="edgeLabel;html=1;align=center;verticalAlign=middle;resizable=0;points=[];" vertex="1" connectable="0" parent="1goMoPxQiR9Q-kaNRsh4-26">
          <mxGeometry x="-0.1857" relative="1" as="geometry">
            <mxPoint as="offset" />
          </mxGeometry>
        </mxCell>
        <mxCell id="1goMoPxQiR9Q-kaNRsh4-29" value="" style="edgeStyle=orthogonalEdgeStyle;rounded=0;orthogonalLoop=1;jettySize=auto;html=1;" edge="1" parent="1" source="1goMoPxQiR9Q-kaNRsh4-24" target="1goMoPxQiR9Q-kaNRsh4-28">
          <mxGeometry relative="1" as="geometry" />
        </mxCell>
        <mxCell id="1goMoPxQiR9Q-kaNRsh4-30" value="否" style="edgeLabel;html=1;align=center;verticalAlign=middle;resizable=0;points=[];" vertex="1" connectable="0" parent="1goMoPxQiR9Q-kaNRsh4-29">
          <mxGeometry x="-0.44" relative="1" as="geometry">
            <mxPoint as="offset" />
          </mxGeometry>
        </mxCell>
        <mxCell id="1goMoPxQiR9Q-kaNRsh4-24" value="是否获取到免审广告" style="rhombus;whiteSpace=wrap;html=1;fillColor=#e51400;strokeColor=#B20000;fontColor=#ffffff;rounded=0;" vertex="1" parent="1">
          <mxGeometry x="660" y="620" width="80" height="80" as="geometry" />
        </mxCell>
        <mxCell id="1goMoPxQiR9Q-kaNRsh4-28" value="结束" style="rounded=1;whiteSpace=wrap;html=1;fillColor=#647687;fontColor=#ffffff;strokeColor=#314354;" vertex="1" parent="1">
          <mxGeometry x="640" y="750" width="120" height="60" as="geometry" />
        </mxCell>
        <mxCell id="1goMoPxQiR9Q-kaNRsh4-32" value="" style="edgeStyle=orthogonalEdgeStyle;rounded=0;orthogonalLoop=1;jettySize=auto;html=1;" edge="1" parent="1" source="1goMoPxQiR9Q-kaNRsh4-31" target="1goMoPxQiR9Q-kaNRsh4-7">
          <mxGeometry relative="1" as="geometry" />
        </mxCell>
        <mxCell id="1goMoPxQiR9Q-kaNRsh4-31" value="根据PRD需要数据拼装，其他暂时不用的字段使用默认值" style="shape=document;whiteSpace=wrap;html=1;boundedLbl=1;fillColor=#f0a30a;fontColor=#000000;strokeColor=#BD7000;" vertex="1" parent="1">
          <mxGeometry x="460" y="220" width="120" height="80" as="geometry" />
        </mxCell>
      </root>
    </mxGraphModel>
  </diagram>
</mxfile>
